<svg width="225" height="173" viewBox="0 0 225 173" fill="none" xmlns="http://www.w3.org/2000/svg">
<path d="M64.4419 115.959C64.5111 116.201 64.5698 116.506 64.3831 116.672C64.3057 116.723 64.2186 116.759 64.1271 116.776C64.0356 116.793 63.9415 116.792 63.8506 116.772C61.8237 116.576 59.8117 116.249 57.8269 115.793C57.7023 115.791 57.5797 115.762 57.4676 115.708C57.3554 115.654 57.2565 115.576 57.1778 115.479C57.099 115.383 57.0423 115.27 57.0117 115.149C56.9811 115.029 56.9772 114.903 57.0005 114.78C56.9138 111.613 57.042 108.443 57.3843 105.293C57.5745 103.547 57.82 100.861 59.3207 99.6713C61.15 98.2261 61.724 100.273 61.8969 101.77C62.4467 106.59 63.0795 111.299 64.4419 115.959Z" fill="#151C24"/>
<path d="M64.4419 115.959C64.5111 116.201 64.5698 116.506 64.3831 116.672C64.3057 116.723 64.2186 116.759 64.1271 116.776C64.0356 116.793 63.9415 116.792 63.8506 116.772C61.8237 116.576 59.8117 116.249 57.8269 115.793C57.7023 115.791 57.5797 115.762 57.4676 115.708C57.3554 115.654 57.2565 115.576 57.1778 115.479C57.099 115.383 57.0423 115.27 57.0117 115.149C56.9811 115.029 56.9772 114.903 57.0005 114.78C56.9138 111.613 57.042 108.443 57.3843 105.293C57.5745 103.547 57.82 100.861 59.3207 99.6713C61.15 98.2261 61.724 100.273 61.8969 101.77C62.4467 106.59 63.0795 111.299 64.4419 115.959Z" fill="url(#paint0_linear)"/>
<path d="M137.073 53.5937C136.236 52.8746 135.312 52.1209 134.209 52.0414C133.172 51.9687 132.152 52.5427 131.443 53.3206C130.778 54.1361 130.241 55.0477 129.849 56.0243C129.486 56.7204 129.23 57.4677 129.092 58.2405C128.939 59.4022 129.32 60.5639 129.417 61.7326C129.469 62.3825 129.437 63.0602 129.711 63.6514C129.879 63.9824 130.119 64.2716 130.414 64.4983C130.708 64.7249 131.049 64.8832 131.412 64.9618C132.14 65.1139 132.894 65.083 133.608 64.8719C133.867 64.826 134.107 64.7059 134.299 64.5262C134.728 64.0594 134.427 63.3022 134.59 62.6903C134.687 62.4295 134.839 62.1925 135.035 61.9951C135.231 61.7978 135.467 61.6446 135.727 61.5459C136.247 61.3503 136.749 61.1108 137.228 60.8302C137.732 60.4727 138.081 59.9378 138.207 59.3331C138.324 58.7453 138.231 58.0953 138.521 57.5698C138.639 57.3554 138.815 57.1756 138.936 56.9613C139.006 56.8611 139.047 56.7444 139.057 56.623C139.067 56.5016 139.044 56.3797 138.992 56.2698C138.899 56.1464 138.781 56.044 138.646 55.969C138.086 55.5714 137.694 54.9799 137.546 54.3094C137.52 54.1643 137.464 54.026 137.383 53.903C137.301 53.7799 137.196 53.6747 137.073 53.5937Z" fill="url(#paint1_linear)"/>
<path d="M133.006 59.3226C132.458 59.0475 131.975 58.6599 131.588 58.1851C131.356 58.4235 131.222 58.74 131.213 59.0723C131.203 59.4045 131.318 59.7283 131.536 59.9796C131.626 60.0571 131.7 60.1509 131.754 60.2562C131.777 60.3299 131.789 60.4069 131.788 60.4843L131.854 62.8112C131.854 63.1155 131.768 63.5338 131.46 63.5235C131.346 63.5068 131.239 63.4576 131.152 63.3817C130.666 63.052 130.1 62.8608 129.513 62.8285C129.319 62.8336 129.125 62.8068 128.939 62.749C128.771 62.6648 128.621 62.5472 128.5 62.4032L127.532 61.3971C127.399 61.2781 127.295 61.1303 127.228 60.9649C127.188 60.7909 127.188 60.61 127.228 60.4359L127.573 58.0503C127.617 57.5706 127.728 57.0993 127.902 56.65C128.076 56.2939 128.31 55.97 128.593 55.6923C129.257 55.0008 130.191 54.4926 131.135 54.6309C131.567 54.6964 131.961 54.9131 132.248 55.2424C132.535 55.5716 132.696 55.9921 132.701 56.4288C132.662 57.403 132.764 58.3779 133.006 59.3226Z" fill="#606161"/>
<path d="M129.686 48.252C128.186 48.2244 126.54 48.252 125.388 49.2098C124.06 50.323 123.873 52.356 124.392 54.0087C124.793 55.281 125.551 56.5222 125.378 57.8464C125.253 58.8041 124.648 59.7619 124.973 60.6712C125.257 61.4664 126.201 61.8778 127.048 61.781C127.884 61.6276 128.654 61.2222 129.254 60.6193C131.118 58.9632 132.421 56.6121 134.652 55.4919C136.287 54.6656 140.005 53.1824 137.684 50.8693C135.606 48.8018 132.453 48.3004 129.686 48.252Z" fill="#151C24"/>
<path d="M129.686 48.252C128.186 48.2244 126.54 48.252 125.388 49.2098C124.06 50.323 123.873 52.356 124.392 54.0087C124.793 55.281 125.551 56.5222 125.378 57.8464C125.253 58.8041 124.648 59.7619 124.973 60.6712C125.257 61.4664 126.201 61.8778 127.048 61.781C127.884 61.6276 128.654 61.2222 129.254 60.6193C131.118 58.9632 132.421 56.6121 134.652 55.4919C136.287 54.6656 140.005 53.1824 137.684 50.8693C135.606 48.8018 132.453 48.3004 129.686 48.252Z" fill="url(#paint2_linear)"/>
<path d="M147.563 83.134C148.016 83.092 148.471 83.1936 148.864 83.4244C149.15 83.6735 149.35 84.006 149.438 84.3752C149.891 85.8481 149.683 87.4351 149.438 88.9563C149.071 91.2244 149.393 94.8755 148.884 97.1125C148.718 97.842 147.75 97.2265 147.155 97.6968C146.325 98.364 145.105 98.1255 144.095 98.4609L143.749 90.4361C143.749 90.1837 143.697 89.8829 143.473 89.7723C143.353 89.7233 143.222 89.7101 143.096 89.7343C141.665 89.8556 140.248 90.1138 138.867 90.5053C137.867 90.7888 136.851 91.1622 136.118 91.8882C134.786 93.2297 134.734 95.3457 134.6 97.2162C134.269 101.399 133.006 105.455 130.903 109.086C129.401 109.082 127.904 108.913 126.439 108.581C126.415 107.837 126.83 107.163 127.096 106.468C127.559 105.269 127.58 103.951 127.535 102.665C127.438 99.8093 127.037 96.9603 127.103 94.101C127.169 91.2417 127.736 88.2994 129.382 85.9622C131.111 83.5178 134.185 81.8928 137.186 82.5048C140.623 83.2135 144.067 83.0891 147.563 83.134Z" fill="#606161"/>
<path d="M147.563 83.134C148.017 83.092 148.471 83.1936 148.864 83.4244C149.15 83.6735 149.35 84.006 149.438 84.3752C149.891 85.8481 149.683 87.4351 149.438 88.9563C149.071 91.2244 149.33 95.318 148.819 97.555C148.653 98.2845 147.75 97.2265 147.166 97.6968C146.336 98.364 145.115 98.1255 144.105 98.4609L143.76 90.4361C143.76 90.1837 143.708 89.8829 143.483 89.7723C143.364 89.7233 143.233 89.7101 143.106 89.7343C141.675 89.8556 140.259 90.1138 138.877 90.5053C137.878 90.7888 136.861 91.1622 136.128 91.8882C134.797 93.2297 134.745 95.3457 134.61 97.2162C134.28 101.399 133.017 105.455 130.913 109.086C129.411 109.082 127.914 108.913 126.449 108.581C126.425 107.837 126.84 107.163 127.106 106.468C127.57 105.269 127.59 103.951 127.545 102.665C127.449 99.8093 127.047 96.9603 127.113 94.101C127.179 91.2417 127.746 88.2994 129.392 85.9622C131.121 83.5178 134.195 81.8928 137.197 82.5048C140.623 83.2135 144.067 83.0891 147.563 83.134Z" fill="url(#paint3_linear)"/>
<path d="M149.317 96.3762C149.476 96.3535 149.639 96.3701 149.791 96.4246C150.085 96.5594 150.174 96.9259 150.23 97.244C150.735 100.269 151.015 103.326 151.067 106.392C151.681 105.819 152.334 105.288 153.02 104.802C153.309 104.566 153.651 104.404 154.016 104.332C154.258 104.316 154.5 104.355 154.724 104.445C154.948 104.536 155.15 104.675 155.313 104.854C155.637 105.214 155.9 105.625 156.091 106.071C156.263 106.338 156.328 106.66 156.274 106.973C156.193 107.178 156.06 107.358 155.887 107.495C153.122 110.006 149.899 111.96 146.395 113.252C146.021 111.7 146.353 110.068 146.232 108.477C146.053 106.098 144.901 103.951 144.061 101.763C143.68 100.764 143.214 99.6123 143.214 98.5233C143.214 97.5655 143.808 97.2233 144.669 97.0262C146.198 96.6794 147.752 96.462 149.317 96.3762Z" fill="#151C24"/>
<path d="M132.078 107.547C132.745 110.543 132.829 113.64 132.327 116.668C132.192 117.48 132.092 118.486 132.77 118.953C133.264 119.299 133.928 119.15 134.527 119.202C135.23 119.291 135.869 119.654 136.306 120.213C136.742 120.771 136.94 121.479 136.857 122.182C136.84 122.402 136.742 122.607 136.584 122.76C136.408 122.88 136.199 122.943 135.986 122.94C132.493 123.278 128.99 123.487 125.477 123.565C125.156 123.565 124.786 123.548 124.613 123.278C124.541 123.136 124.507 122.978 124.516 122.819C124.364 118.694 123.824 114.175 124.336 110.081C124.789 106.437 129.447 107.533 132.078 107.547Z" fill="#151C24"/>
<path d="M149.317 96.3762C149.476 96.3535 149.639 96.3701 149.791 96.4246C150.085 96.5594 150.174 96.9259 150.23 97.244C150.735 100.269 151.015 103.326 151.067 106.392C151.681 105.819 152.334 105.288 153.02 104.802C153.309 104.566 153.651 104.404 154.016 104.332C154.258 104.316 154.5 104.355 154.724 104.445C154.948 104.536 155.15 104.675 155.313 104.854C155.637 105.214 155.9 105.625 156.091 106.071C156.263 106.338 156.328 106.66 156.274 106.973C156.193 107.178 156.06 107.358 155.887 107.495C153.122 110.006 149.899 111.96 146.395 113.252C146.021 111.7 146.353 110.068 146.232 108.477C146.053 106.098 144.901 103.951 144.061 101.763C143.68 100.764 143.214 99.6123 143.214 98.5233C143.214 97.5655 143.808 97.2233 144.669 97.0262C146.198 96.6794 147.752 96.462 149.317 96.3762Z" fill="url(#paint4_linear)"/>
<path d="M132.078 107.547C132.745 110.543 132.829 113.64 132.327 116.668C132.192 117.48 132.092 118.486 132.77 118.953C133.264 119.299 133.928 119.15 134.527 119.202C135.23 119.291 135.869 119.654 136.306 120.213C136.742 120.771 136.94 121.479 136.857 122.182C136.84 122.402 136.742 122.607 136.584 122.76C136.408 122.88 136.199 122.943 135.986 122.94C132.493 123.278 128.99 123.487 125.477 123.565C125.156 123.565 124.786 123.548 124.613 123.278C124.541 123.136 124.507 122.978 124.516 122.819C124.364 118.694 123.824 114.175 124.336 110.081C124.789 106.437 129.447 107.533 132.078 107.547Z" fill="url(#paint5_linear)"/>
<path d="M138.846 61.6911C140.035 60.7196 140.851 59.3677 141.501 57.9744C142.706 58.5736 143.822 59.3343 144.821 60.2355C144.976 60.3336 145.089 60.4867 145.137 60.6643C145.184 60.8418 145.163 61.0307 145.077 61.1932C144.557 62.7359 143.595 64.0918 142.311 65.092C141.027 66.0922 139.476 66.6927 137.853 66.8185C136.719 66.8842 135.495 66.6733 134.675 65.885C133.963 65.1935 133.507 63.3507 134.644 62.8597C135.139 62.6454 136.214 62.9358 136.833 62.7595C137.569 62.5423 138.253 62.1789 138.846 61.6911Z" fill="#151C24"/>
<path d="M138.846 61.6911C140.035 60.7196 140.851 59.3677 141.501 57.9744C142.706 58.5736 143.822 59.3343 144.821 60.2355C144.976 60.3336 145.089 60.4867 145.137 60.6643C145.184 60.8418 145.163 61.0307 145.077 61.1932C144.557 62.7359 143.595 64.0918 142.311 65.092C141.027 66.0922 139.476 66.6927 137.853 66.8185C136.719 66.8842 135.495 66.6733 134.675 65.885C133.963 65.1935 133.507 63.3507 134.644 62.8597C135.139 62.6454 136.214 62.9358 136.833 62.7595C137.569 62.5423 138.253 62.1789 138.846 61.6911Z" fill="url(#paint6_linear)"/>
<path d="M142.746 54.7901C142.77 54.0986 142.819 53.3345 143.31 52.8436C143.801 52.3526 144.53 52.3008 145.208 52.2662L146.768 52.1832C147.056 52.1395 147.35 52.1854 147.611 52.3146C147.957 52.5359 148.033 53.0061 148.085 53.3933C148.161 54.0191 148.23 54.6899 147.936 55.25C147.673 55.6508 147.34 56.0019 146.954 56.2872C146.382 56.7947 145.895 57.3913 145.512 58.054C145.139 58.7143 144.855 59.4369 144.309 59.9728C144.198 60.0937 144.063 60.1911 143.913 60.2593C143.764 60.3276 143.602 60.3654 143.438 60.3705C143.199 60.3363 142.979 60.2258 142.808 60.0557C142.638 59.8855 142.528 59.6648 142.494 59.4266C142.359 58.7351 142.629 57.9295 142.649 57.2207C142.68 56.4117 142.708 55.6026 142.746 54.7901Z" fill="url(#paint7_linear)"/>
<path d="M142.272 52.9923H137.898V54.3822H142.272V52.9923Z" fill="#151C24"/>
<path d="M142.272 52.9923H137.898V54.3822H142.272V52.9923Z" fill="url(#paint8_linear)"/>
<path d="M149.839 51.9341H141.989V55.0147H149.839V51.9341Z" fill="#151C24"/>
<path d="M170.347 50.9487H149.79V56.3803H170.347V50.9487Z" fill="#151C24"/>
<path d="M149.839 51.9341H141.989V55.0147H149.839V51.9341Z" fill="url(#paint9_linear)"/>
<path d="M149.78 50.9487H170.341V56.3838H149.78" fill="url(#paint10_linear)"/>
<path d="M172.706 86.2632C169.058 85.6305 165.904 89.0292 164.577 92.4866C163.249 95.9441 162.903 99.8164 160.877 102.911C158.912 105.912 155.645 107.751 152.505 109.48C147.318 112.346 142.024 115.247 136.253 116.606C131.702 117.678 126.968 117.449 122.303 117.761C66.7831 121.457 45.9872 114.303 29.2854 103.471C31.7154 111.039 34.6603 118.432 38.0996 125.599C40.2159 130 42.5777 134.398 46.1151 137.769C50.1436 141.61 55.4342 143.85 60.7698 145.451C81.4723 151.657 103.648 149.196 125.122 146.675C131.692 145.908 138.331 145.116 144.486 142.723C156.648 138.004 165.994 126.995 169.414 114.41C170.514 110.358 171.043 106.175 171.565 102.008C172.205 96.805 172.053 91.4563 172.706 86.2632Z" fill="#151C24"/>
<path d="M172.702 86.2632C172.052 91.4493 172.201 96.798 171.551 101.998C171.444 102.893 171.323 103.786 171.205 104.678C170.82 107.958 170.217 111.21 169.4 114.41C167.543 121.151 164.095 127.348 159.344 132.479C155.231 136.978 150.146 140.479 144.475 142.716C138.313 145.112 131.681 145.897 125.111 146.668C103.648 149.189 81.465 151.65 60.7555 145.437C55.42 143.84 50.1397 141.603 46.1043 137.758C45.6029 137.271 45.1153 136.769 44.6693 136.244C41.9029 133.132 39.9008 129.364 38.0992 125.585C35.7444 120.672 34.7554 118.639 33.6039 115.403C33.0783 113.926 32.5078 112.194 31.7505 109.839C48.4626 120.658 99.9372 121.647 111.826 121.66C116.501 121.66 131.747 117.691 136.297 116.609C142.082 115.254 147.363 112.357 152.549 109.487C155.679 107.758 158.954 105.912 160.918 102.918C162.937 99.8302 163.29 95.9544 164.614 92.5039C165.939 89.0533 169.061 85.627 172.702 86.2632Z" fill="url(#paint11_linear)"/>
<path d="M46.7 95.6466C48.0313 92.8461 49.8744 90.1147 52.6477 88.7317C54.6325 87.7394 56.9286 87.532 59.1451 87.6703C61.0435 87.7913 63.1424 88.2892 64.1798 89.8865C64.9302 91.0482 64.9924 92.6213 65.971 93.5998C66.7421 94.3708 67.9904 94.6612 68.4988 95.6259C69.1177 96.8014 68.191 98.2915 66.9842 98.8378C65.7774 99.3841 64.3907 99.3011 63.0664 99.3806C62.4993 99.4152 61.8768 99.5155 61.5241 99.958C61.2764 100.338 61.1553 100.787 61.1783 101.241L60.5282 113.764C60.5518 114.287 60.422 114.806 60.1548 115.257C59.5185 116.111 58.208 115.921 57.181 115.641L46.904 112.847C45.8356 112.557 44.729 112.246 43.8887 111.527C42.0872 109.981 43.4911 106.631 43.8403 104.612C44.3818 101.507 45.3439 98.4912 46.7 95.6466Z" fill="#151C24"/>
<path d="M48.6044 96.3658C47.8747 98.8829 47.1832 101.746 48.5283 103.996C48.6374 104.214 48.8097 104.394 49.0228 104.512C49.2378 104.591 49.4721 104.602 49.6936 104.543C50.6362 104.315 51.4511 103.725 51.962 102.9C52.4652 102.08 52.8013 101.168 52.951 100.217C53.3936 97.9321 53.2968 95.5637 53.8154 93.3025C54.0817 92.1063 54.6177 90.8374 55.7242 90.3118C55.1075 90.2887 54.4928 90.397 53.9211 90.6295C53.3494 90.8619 52.8336 91.2133 52.4081 91.6602C51.5643 92.5834 50.9627 93.6967 50.2503 94.7201C49.6832 95.5257 48.8775 95.415 48.6044 96.3658Z" fill="#151C24"/>
<path d="M41.6957 101.237C41.509 99.8925 41.3015 98.4507 40.3713 97.4688C39.9197 97.0116 39.3457 96.6943 38.7183 96.5551C38.0908 96.4159 37.4365 96.4607 36.8339 96.684C36.2385 96.9258 35.7215 97.3271 35.3395 97.8438C34.9576 98.3604 34.7257 98.9725 34.6692 99.6124C34.6475 99.7774 34.6629 99.9451 34.7142 100.103C34.8525 100.449 35.2571 100.615 35.5613 100.847C36.5088 101.559 36.4846 102.949 36.744 104.104C37.0344 105.386 37.7571 106.524 38.4729 107.616C39.3201 108.882 40.3609 110.23 41.8617 110.469C44.0817 110.815 43.0443 108.667 42.7365 107.589C42.1798 105.556 41.9827 103.322 41.6957 101.237Z" fill="#151C24"/>
<path d="M46.7 95.6466C48.0313 92.8461 49.8744 90.1147 52.6477 88.7317C54.6325 87.7394 56.9286 87.532 59.1451 87.6703C61.0435 87.7913 63.1424 88.2892 64.1798 89.8865C64.9302 91.0482 64.9924 92.6213 65.971 93.5998C66.7421 94.3708 67.9904 94.6612 68.4988 95.6259C69.1177 96.8014 68.191 98.2915 66.9842 98.8378C65.7774 99.3841 64.3907 99.3011 63.0664 99.3806C62.4993 99.4152 61.8768 99.5155 61.5241 99.958C61.2764 100.338 61.1553 100.787 61.1783 101.241L60.5282 113.764C60.5518 114.287 60.422 114.806 60.1548 115.257C59.5185 116.111 58.208 115.921 57.181 115.641L46.904 112.847C45.8356 112.557 44.729 112.246 43.8887 111.527C42.0872 109.981 43.4911 106.631 43.8403 104.612C44.3818 101.507 45.3439 98.4912 46.7 95.6466Z" fill="url(#paint12_linear)"/>
<path d="M48.473 97.2682C47.7468 99.7886 47.0552 102.651 48.4004 104.902C48.5076 105.12 48.6805 105.299 48.8948 105.414C49.1098 105.493 49.3442 105.504 49.5657 105.445C50.5086 105.218 51.3237 104.627 51.8341 103.803C52.3338 102.982 52.6696 102.072 52.823 101.123C53.2656 98.8378 53.1688 96.466 53.6841 94.2083C53.9538 93.0121 54.4863 91.7432 55.5963 91.2176C54.9792 91.1945 54.3643 91.3031 53.7925 91.5362C53.2207 91.7693 52.7051 92.1216 52.2801 92.5695C51.4364 93.4892 50.8347 94.6025 50.1189 95.6293C49.5553 96.4315 48.7496 96.3174 48.473 97.2682Z" fill="url(#paint13_linear)"/>
<path d="M47.8507 96.2587C46.7926 98.6581 45.731 101.403 46.7615 103.813C46.8419 104.042 46.9888 104.242 47.1833 104.387C47.3858 104.494 47.6165 104.537 47.8438 104.508C48.8094 104.408 49.6965 103.931 50.3128 103.18C50.919 102.434 51.3725 101.575 51.6475 100.653C52.391 98.4472 52.6157 96.0858 53.4214 93.9041C53.8468 92.7528 54.5453 91.5669 55.714 91.1935C55.1071 91.0898 54.4851 91.116 53.889 91.2703C53.2929 91.4247 52.7364 91.7037 52.2561 92.089C51.2983 92.8911 50.5548 93.9145 49.7111 94.8377C49.0368 95.5672 48.2484 95.3494 47.8507 96.2587Z" fill="#2C3541"/>
<path d="M41.6957 101.237C41.509 99.8925 41.3015 98.4507 40.3713 97.4688C39.9197 97.0116 39.3457 96.6943 38.7183 96.5551C38.0908 96.4159 37.4365 96.4607 36.8339 96.684C36.2385 96.9258 35.7215 97.3271 35.3395 97.8438C34.9576 98.3604 34.7257 98.9725 34.6692 99.6124C34.6475 99.7774 34.6629 99.9451 34.7142 100.103C34.8525 100.449 35.2571 100.615 35.5613 100.847C36.5088 101.559 36.4846 102.949 36.744 104.104C37.0344 105.386 37.7571 106.524 38.4729 107.616C39.3201 108.882 40.3609 110.23 41.8617 110.469C44.0817 110.815 43.0443 108.667 42.7365 107.589C42.1798 105.556 41.9827 103.322 41.6957 101.237Z" fill="url(#paint14_linear)"/>
<path d="M151.332 52.394C151.602 52.3214 151.879 52.5116 152.162 52.5116C152.805 52.5116 153.034 51.6576 153.528 51.2427C153.736 51.0977 153.972 50.9973 154.221 50.9479C154.47 50.8985 154.726 50.9012 154.974 50.9557C155.475 51.0318 155.962 51.2012 156.467 51.2289C156.665 51.2198 156.863 51.2468 157.052 51.3084C157.55 51.5262 157.55 52.2212 157.474 52.7571C157.328 53.7424 157.162 54.7797 156.53 55.5472C155.745 56.5049 154.358 56.8852 153.763 57.9674C153.669 58.1858 153.541 58.3877 153.383 58.5656C153.219 58.6817 153.028 58.7551 152.828 58.7793C152.628 58.8034 152.426 58.7775 152.238 58.7039C151.142 58.3961 149.818 57.186 149.98 55.9379C150.081 55.2464 150.61 54.6898 150.779 54.0225C150.879 53.5765 150.748 52.5531 151.332 52.394Z" fill="url(#paint15_linear)"/>
<path d="M149.002 55.7755C149.448 56.6917 150.216 57.4039 150.966 58.0954L153.549 60.4707C151.475 62.3169 149.746 64.5643 147.591 66.3241C144.825 68.5749 141.44 69.9129 138.12 71.2164C138.155 73.8855 138.12 76.4578 138.144 79.127C138.199 80.4136 138.139 81.7026 137.965 82.9786C137.671 84.7592 136.927 86.436 136.412 88.1647C135.775 90.2568 135.442 92.4295 135.423 94.6163C132.17 94.8952 128.909 95.0473 125.641 95.0727C123.718 95.0727 121.636 95.0001 120.129 93.8038C122.318 89.807 124.551 85.6823 125.084 81.1565C125.634 76.489 124.333 71.7039 125.233 67.0916C125.464 65.8885 125.903 64.6369 126.892 63.9177C128.369 62.8425 130.406 63.3472 132.193 63.7068C134.355 64.1346 136.564 64.2787 138.763 64.1355C139.486 64.1244 140.199 63.9705 140.862 63.6826C141.682 63.2712 142.27 62.5244 142.858 61.8225C144.718 59.6132 146.668 57.4385 149.002 55.7755Z" fill="#151C24"/>
<path d="M149.002 55.7755C149.448 56.6917 150.216 57.4039 150.966 58.0954L153.549 60.4707C151.475 62.3169 149.746 64.5643 147.591 66.3241C144.825 68.5749 141.44 69.9129 138.12 71.2164C138.155 73.8855 138.12 76.4578 138.144 79.127C138.199 80.4136 138.139 81.7026 137.965 82.9786C137.671 84.7592 136.927 86.436 136.412 88.1647C135.775 90.2568 135.442 92.4295 135.423 94.6163C132.17 94.8952 128.909 95.0473 125.641 95.0727C123.718 95.0727 121.636 95.0001 120.129 93.8038C122.318 89.807 124.551 85.6823 125.084 81.1565C125.634 76.489 124.333 71.7039 125.233 67.0916C125.464 65.8885 125.903 64.6369 126.892 63.9177C128.369 62.8425 130.406 63.3472 132.193 63.7068C134.355 64.1346 136.564 64.2787 138.763 64.1355C139.486 64.1244 140.199 63.9705 140.862 63.6826C141.682 63.2712 142.27 62.5244 142.858 61.8225C144.718 59.6132 146.668 57.4385 149.002 55.7755Z" fill="url(#paint16_linear)"/>
<path d="M124.979 73.0557C125.823 72.994 126.631 72.6937 127.31 72.1898C127.989 71.686 128.511 70.9994 128.814 70.2103C129.098 69.4323 129.16 68.5611 129.63 67.8765C130.059 67.2472 130.758 66.8669 131.428 66.5108C132.22 66.0632 133.047 65.6805 133.901 65.3664C134.391 65.2367 134.865 65.0535 135.315 64.8201C135.361 64.7981 135.402 64.7673 135.436 64.7293C135.47 64.6913 135.496 64.6469 135.512 64.5988C135.515 64.5365 135.5 64.4747 135.47 64.4199C135.441 64.3651 135.397 64.3194 135.343 64.2877C134.985 64.0537 134.576 63.9112 134.15 63.8728C132.919 63.6653 131.65 63.4579 130.436 63.7414C129.418 64.0376 128.462 64.5155 127.614 65.152C126.869 65.5852 126.228 66.1751 125.733 66.8808C125.152 67.8385 125.128 68.9967 124.914 70.0651C124.848 70.3866 124.765 73.0661 124.979 73.0557Z" fill="url(#paint17_linear)"/>
<path d="M120.311 64.1285C120.07 64.2133 119.872 64.3897 119.76 64.6194C119.648 64.8492 119.631 65.1138 119.713 65.3559C120.047 67.6027 120.807 69.7652 121.95 71.728C121.976 71.7992 122.015 71.8646 122.066 71.9205C122.117 71.9764 122.178 72.0218 122.247 72.0539C122.315 72.086 122.389 72.1043 122.465 72.1077C122.54 72.1111 122.616 72.0996 122.687 72.0737C123.829 71.8849 124.879 71.3319 125.681 70.4972C126.345 69.8057 126.781 68.9102 127.338 68.115C128.379 66.6795 129.774 65.5374 131.387 64.7993C132.967 64.0214 132.998 62.832 131.238 62.0714C128.057 60.7022 123.077 62.4897 120.311 64.1285Z" fill="#151C24"/>
<path d="M120.311 64.1285C120.07 64.2133 119.872 64.3897 119.76 64.6194C119.648 64.8492 119.631 65.1138 119.713 65.3559C120.047 67.6027 120.807 69.7652 121.95 71.728C121.976 71.7992 122.015 71.8646 122.066 71.9205C122.117 71.9764 122.178 72.0218 122.247 72.0539C122.315 72.086 122.389 72.1043 122.465 72.1077C122.54 72.1111 122.616 72.0996 122.687 72.0737C123.829 71.8849 124.879 71.3319 125.681 70.4972C126.345 69.8057 126.781 68.9102 127.338 68.115C128.379 66.6795 129.774 65.5374 131.387 64.7993C132.967 64.0214 132.998 62.832 131.238 62.0714C128.057 60.7022 123.077 62.4897 120.311 64.1285Z" fill="url(#paint18_linear)"/>
<path d="M171.202 104.677C170.819 107.958 170.217 111.21 169.4 114.41C167.544 121.151 164.095 127.348 159.345 132.479C154.089 135.936 145.558 139.504 132.435 140.251C108.451 141.634 65.7907 141.765 44.6663 136.244C41.9 133.132 39.8978 129.364 38.0962 125.585C35.7414 120.672 34.7524 118.639 33.601 115.402C39.5347 119.074 60.5382 129.772 100.366 126.601C148.214 122.798 158.899 120.305 168.052 107.156L171.202 104.677Z" fill="url(#paint19_linear)"/>
<path opacity="0.53" d="M203.513 158.461C195.861 163.81 186.424 167.292 177.233 169.065C147.325 174.832 116.422 168.346 86.0164 170.421C73.2221 171.285 60.4278 173.695 47.6335 172.803C41.2709 172.357 31.5611 169 23.0823 163.623C15.2985 158.665 8.52787 152.017 6.33209 144.3C6.13153 143.553 5.95517 142.796 5.83069 142.039C5.83069 142.039 21.0801 134.346 36.5197 132.952C42.125 132.437 47.7476 132.762 52.6751 134.577C53.5569 134.902 54.4491 135.227 55.3447 135.566C68.8859 140.59 83.2293 146.046 96.9469 141.983C102.701 140.279 107.864 136.973 113.483 134.833C118.917 132.791 124.701 131.841 130.503 132.036C136.306 132.231 142.013 133.568 147.298 135.971C150.182 137.298 153.041 138.979 156.209 139.155C162.129 139.48 166.88 134.66 172.053 131.787C172.637 131.462 173.232 131.165 173.827 130.895C179.747 128.147 186.165 127.784 192.693 128.769C201.265 130.069 210.014 133.723 217.964 137.489C218.261 137.637 210.868 153.358 203.513 158.461Z" fill="#0077FF"/>
<path opacity="0.53" d="M217.963 137.489C218.26 137.637 210.853 153.358 203.512 158.462C189.483 161.795 174.811 161.349 160.34 161.483C115.387 161.957 70.32 168.481 25.5884 163.904C24.7654 163.821 23.9251 163.727 23.0848 163.634C15.2976 158.666 8.52699 152.017 6.33121 144.3C5.53389 143.262 4.8445 142.145 4.27375 140.967C1.90507 136.106 0.670597 130.162 0.210693 124.025C4.826 122.52 9.75093 122.226 14.5127 123.171C22.3414 124.769 29.2607 129.63 36.5189 132.963C40.4989 134.792 44.5758 136.144 48.9674 136.254C51.1141 136.281 53.2562 136.049 55.3472 135.563C60.3716 134.467 65.2473 132.23 70.1368 130.484C89.9195 123.417 111.507 124.053 132.511 124.783C145.865 125.242 159.462 125.758 172.056 130.242L173.829 130.892C177.595 132.275 181.482 133.692 185.369 132.88C188.201 132.299 190.5 130.674 192.696 128.766C195.078 126.667 197.312 124.271 199.913 122.494C205.099 118.988 216.016 117.135 220.933 122.321C221.765 123.239 222.463 124.269 223.008 125.381C221.998 129.703 220.428 133.858 217.963 137.489Z" fill="#117BF4"/>
<path d="M66.7138 93.5513C66.5036 93.4974 66.2846 93.488 66.0706 93.5237C65.964 93.5442 65.8648 93.5928 65.7833 93.6646C65.7019 93.7363 65.6411 93.8285 65.6072 93.9317C65.5277 94.2774 65.8216 94.554 66.0844 94.7649L66.6965 95.2628C66.8562 95.4117 67.0428 95.5291 67.2463 95.6085C67.3481 95.6469 67.4586 95.6556 67.5652 95.6336C67.6717 95.6115 67.7698 95.5597 67.8479 95.4841C67.9321 95.379 67.9838 95.2516 67.9966 95.1176C68.0315 94.9061 68.0185 94.6895 67.9587 94.4837C67.8989 94.2778 67.7937 94.088 67.6508 93.9282C67.5042 93.7721 67.3135 93.6643 67.1041 93.6192C66.8947 93.5741 66.6765 93.5939 66.4786 93.6758" fill="#151C24"/>
<path d="M66.7138 93.5513C66.5036 93.4974 66.2846 93.488 66.0706 93.5237C65.964 93.5442 65.8648 93.5928 65.7833 93.6646C65.7019 93.7363 65.6411 93.8285 65.6072 93.9317C65.5277 94.2774 65.8216 94.554 66.0844 94.7649L66.6965 95.2628C66.8562 95.4117 67.0428 95.5291 67.2463 95.6085C67.3481 95.6469 67.4586 95.6556 67.5652 95.6336C67.6717 95.6115 67.7698 95.5597 67.8479 95.4841C67.9321 95.379 67.9838 95.2516 67.9966 95.1176C68.0315 94.9061 68.0185 94.6895 67.9587 94.4837C67.8989 94.2778 67.7937 94.088 67.6508 93.9282C67.5042 93.7721 67.3135 93.6643 67.1041 93.6192C66.8947 93.5741 66.6765 93.5939 66.4786 93.6758" fill="url(#paint20_linear)"/>
<path d="M62.5574 93.8108C62.861 93.8108 63.1072 93.5647 63.1072 93.2611C63.1072 92.9575 62.861 92.7114 62.5574 92.7114C62.2537 92.7114 62.0076 92.9575 62.0076 93.2611C62.0076 93.5647 62.2537 93.8108 62.5574 93.8108Z" fill="url(#paint21_linear)"/>
<path d="M52.2218 106.5C52.2097 107.236 52.2887 107.971 52.4569 108.688C52.6298 109.335 52.9376 109.943 53.1485 110.586C53.3594 111.229 53.4424 111.924 53.6361 112.585C53.9162 113.532 54.013 114.441 55.8111 115.254C52.6298 114.455 52.2045 114.638 52.2564 112.415C52.2944 110.441 52.2633 108.474 52.2218 106.5Z" fill="url(#paint22_linear)"/>
<defs>
<linearGradient id="paint0_linear" x1="56.9728" y1="107.976" x2="64.5076" y2="107.976" gradientUnits="userSpaceOnUse">
<stop stop-color="#F5BA57"/>
<stop offset="0.95" stop-color="white"/>
</linearGradient>
<linearGradient id="paint1_linear" x1="129.064" y1="58.5483" x2="139.064" y2="58.5483" gradientUnits="userSpaceOnUse">
<stop stop-color="#E5C6D6"/>
<stop offset="0.42" stop-color="#EAD4D0"/>
<stop offset="1" stop-color="#F0E9CB"/>
</linearGradient>
<linearGradient id="paint2_linear" x1="124.126" y1="55.0182" x2="138.418" y2="55.0182" gradientUnits="userSpaceOnUse">
<stop stop-color="#010101" stop-opacity="0"/>
<stop offset="0.95" stop-color="#010101"/>
</linearGradient>
<linearGradient id="paint3_linear" x1="10272.7" y1="8090.65" x2="9076.52" y2="6995.32" gradientUnits="userSpaceOnUse">
<stop stop-color="#010101" stop-opacity="0"/>
<stop offset="0.95" stop-color="#010101"/>
</linearGradient>
<linearGradient id="paint4_linear" x1="6027.78" y1="5555.81" x2="6043.91" y2="4538.05" gradientUnits="userSpaceOnUse">
<stop stop-color="#F5BA57"/>
<stop offset="0.95" stop-color="#FFD200"/>
</linearGradient>
<linearGradient id="paint5_linear" x1="4921.94" y1="5513.94" x2="5392.74" y2="5513.94" gradientUnits="userSpaceOnUse">
<stop stop-color="white" stop-opacity="0"/>
<stop offset="0.95" stop-color="white"/>
</linearGradient>
<linearGradient id="paint6_linear" x1="4667.93" y1="1657.08" x2="5030.93" y2="1657.08" gradientUnits="userSpaceOnUse">
<stop stop-color="#010101" stop-opacity="0"/>
<stop offset="0.95" stop-color="#010101"/>
</linearGradient>
<linearGradient id="paint7_linear" x1="2586.7" y1="1388.08" x2="2680.16" y2="1388.08" gradientUnits="userSpaceOnUse">
<stop stop-color="#E5C6D6"/>
<stop offset="0.42" stop-color="#EAD4D0"/>
<stop offset="1" stop-color="#F0E9CB"/>
</linearGradient>
<linearGradient id="paint8_linear" x1="1909.09" y1="266.269" x2="1909.4" y2="274.982" gradientUnits="userSpaceOnUse">
<stop stop-color="#010101" stop-opacity="0"/>
<stop offset="0.95" stop-color="#010101"/>
</linearGradient>
<linearGradient id="paint9_linear" x1="3453.93" y1="521.447" x2="3454.1" y2="553.306" gradientUnits="userSpaceOnUse">
<stop stop-color="#010101" stop-opacity="0"/>
<stop offset="0.95" stop-color="#010101"/>
</linearGradient>
<linearGradient id="paint10_linear" x1="9665.31" y1="859.149" x2="9665.9" y2="1034.51" gradientUnits="userSpaceOnUse">
<stop stop-color="#010101" stop-opacity="0"/>
<stop offset="0.95" stop-color="#010101"/>
</linearGradient>
<linearGradient id="paint11_linear" x1="44600.7" y1="23474.6" x2="44809" y2="35143.2" gradientUnits="userSpaceOnUse">
<stop stop-color="#010101" stop-opacity="0"/>
<stop offset="0.95" stop-color="#010101"/>
</linearGradient>
<linearGradient id="paint12_linear" x1="4212.36" y1="10299" x2="4708.46" y2="8493.85" gradientUnits="userSpaceOnUse">
<stop stop-color="#F5BA57"/>
<stop offset="0.95" stop-color="white"/>
</linearGradient>
<linearGradient id="paint13_linear" x1="1281.17" y1="4150.93" x2="1464.52" y2="4150.93" gradientUnits="userSpaceOnUse">
<stop stop-color="#010101" stop-opacity="0"/>
<stop offset="0.95" stop-color="#010101"/>
</linearGradient>
<linearGradient id="paint14_linear" x1="1320.5" y1="4402.22" x2="1051.1" y2="4326.32" gradientUnits="userSpaceOnUse">
<stop stop-color="#F5BA57"/>
<stop offset="0.95" stop-color="white"/>
</linearGradient>
<linearGradient id="paint15_linear" x1="3550.96" y1="1301.04" x2="3715.87" y2="1301.04" gradientUnits="userSpaceOnUse">
<stop stop-color="#E5C6D6"/>
<stop offset="0.42" stop-color="#EAD4D0"/>
<stop offset="1" stop-color="#F0E9CB"/>
</linearGradient>
<linearGradient id="paint16_linear" x1="14475" y1="9486.72" x2="11357.9" y2="6787.09" gradientUnits="userSpaceOnUse">
<stop stop-color="#F5BA57"/>
<stop offset="0.95" stop-color="#FFD200"/>
</linearGradient>
<linearGradient id="paint17_linear" x1="4359.14" y1="2011.71" x2="4099.78" y2="1320.29" gradientUnits="userSpaceOnUse">
<stop stop-color="#010101" stop-opacity="0"/>
<stop offset="0.95" stop-color="#645A2F" stop-opacity="0.98"/>
</linearGradient>
<linearGradient id="paint18_linear" x1="5093.77" y1="2169.35" x2="5047.82" y2="1952.92" gradientUnits="userSpaceOnUse">
<stop stop-color="#F5BA57"/>
<stop offset="0.95" stop-color="#FFD200"/>
</linearGradient>
<linearGradient id="paint19_linear" x1="43024.3" y1="11145.9" x2="43322.1" y2="30861.4" gradientUnits="userSpaceOnUse">
<stop stop-color="#010101" stop-opacity="0"/>
<stop offset="0.95" stop-color="#010101"/>
</linearGradient>
<linearGradient id="paint20_linear" x1="573.799" y1="672.167" x2="576.947" y2="693.167" gradientUnits="userSpaceOnUse">
<stop stop-color="#010101" stop-opacity="0"/>
<stop offset="0.95" stop-color="#010101"/>
</linearGradient>
<linearGradient id="paint21_linear" x1="260.621" y1="387.406" x2="261.479" y2="392.463" gradientUnits="userSpaceOnUse">
<stop stop-color="#010101" stop-opacity="0"/>
<stop offset="0.95" stop-color="#010101"/>
</linearGradient>
<linearGradient id="paint22_linear" x1="707.346" y1="2846.84" x2="82.8048" y2="3065.67" gradientUnits="userSpaceOnUse">
<stop stop-color="#010101" stop-opacity="0"/>
<stop offset="0.95" stop-color="#010101"/>
</linearGradient>
</defs>
</svg>
