<?xml version="1.0" encoding="iso-8859-1"?>
<!-- Generator: Adobe Illustrator 19.0.0, SVG Export Plug-In . SVG Version: 6.00 Build 0)  -->
<svg fill="#FFFFFF" version="1.1" id="Capa_1" xmlns="http://www.w3.org/2000/svg" xmlns:xlink="http://www.w3.org/1999/xlink" x="0px" y="0px"
	 viewBox="0 0 368 368" style="enable-background:new 0 0 368 368;" xml:space="preserve">
<g>
	<g>
		<g>
			<path d="M184,0C82.536,0,0,82.544,0,184s82.536,184,184,184s184-82.544,184-184S285.464,0,184,0z M184,352
				c-92.632,0-168-75.36-168-168S91.368,16,184,16s168,75.36,168,168S276.632,352,184,352z"/>
			<path d="M300.656,177.488l-112.008-80c-2.44-1.736-5.64-1.976-8.312-0.6C177.672,98.256,176,101,176,104v40H79.992
				C71.168,144,64,151.176,64,160v48c0,8.824,7.168,16,15.992,16H176v40c0,3,1.672,5.744,4.336,7.112
				c1.16,0.592,2.416,0.888,3.664,0.888c1.64,0,3.264-0.504,4.648-1.488l112.008-80c2.104-1.504,3.352-3.928,3.352-6.512
				S302.76,178.992,300.656,177.488z M192,248.456V216c0-4.416-3.576-8-8-8H80l-0.008-48H184c4.424,0,8-3.584,8-8v-32.456
				L282.24,184L192,248.456z"/>
		</g>
	</g>
</g>
<g>
</g>
<g>
</g>
<g>
</g>
<g>
</g>
<g>
</g>
<g>
</g>
<g>
</g>
<g>
</g>
<g>
</g>
<g>
</g>
<g>
</g>
<g>
</g>
<g>
</g>
<g>
</g>
<g>
</g>
</svg>
